<svg version="1.1" id="Layer_1" xmlns="http://www.w3.org/2000/svg" xmlns:xlink="http://www.w3.org/1999/xlink" x="0px" y="0px"
	 width="100%" viewBox="0 0 736 752" enable-background="new 0 0 736 752" xml:space="preserve">
<path fill="#000000" opacity="1.000000" stroke="none" 
	d="
M167.531342,1.000000 
	C162.648468,3.500958 156.844696,2.056574 151.271149,2.880627 
	C127.938438,6.330382 105.937859,13.624566 85.672272,25.599754 
	C69.507637,35.151638 55.897110,47.887020 43.744690,62.157295 
	C23.312166,86.150681 11.001642,114.028534 4.832759,144.712311 
	C3.203498,152.816177 2.581992,161.122665 1.248868,169.668060 
	C1.000000,113.740089 1.000000,57.480175 1.000000,1.000000 
	C56.354034,1.000000 111.708359,1.000000 167.531342,1.000000 
z"/>
<path fill="#000000" opacity="1.000000" stroke="none" 
	d="
M737.000000,131.531342 
	C733.814514,126.459412 733.064819,120.073242 730.812683,114.202370 
	C711.944641,65.017570 678.453613,30.521986 628.698547,12.281348 
	C612.652649,6.398761 596.124451,3.006526 579.052795,2.214420 
	C577.918701,2.161797 576.802307,1.726044 575.338867,1.234248 
	C628.919250,1.000000 682.838562,1.000000 737.000000,1.000000 
	C737.000000,44.353928 737.000000,87.708305 737.000000,131.531342 
z"/>
<path fill="#000000" opacity="1.000000" stroke="none" 
	d="
M1.000000,598.468628 
	C3.593138,603.827576 2.261777,610.133667 3.113933,616.197327 
	C6.999333,643.844482 16.079359,669.267578 32.642708,691.972046 
	C47.445415,712.263123 65.220871,729.201721 86.853584,742.006836 
	C90.849861,744.372314 95.030113,746.433167 99.174896,748.537109 
	C100.164322,749.039368 101.352325,749.150452 102.503220,749.455872 
	C103.224243,746.566223 99.870728,746.784363 99.197594,744.160339 
	C107.646980,746.974487 115.877625,748.750305 123.736755,752.762268 
	C83.064613,753.000000 42.129223,753.000000 1.000000,753.000000 
	C1.000000,701.645935 1.000000,650.291626 1.000000,598.468628 
z"/>
<path fill="#000000" opacity="1.000000" stroke="none" 
	d="
M620.468628,753.000000 
	C622.169617,750.665771 625.292664,750.242493 628.042969,749.192871 
	C638.004944,745.391235 647.548584,740.701538 657.109375,736.030151 
	C659.155518,735.030334 661.229309,733.750671 663.542358,735.803162 
	C664.897156,737.005432 666.351379,736.102173 667.686096,735.344299 
	C674.653381,731.388306 681.267029,726.982544 687.075623,721.378967 
	C699.693237,709.206970 711.526428,696.479858 720.235901,681.035461 
	C726.663391,669.637817 731.578857,657.724731 734.949585,645.130798 
	C735.296570,643.834290 735.523987,642.529724 736.727234,641.246338 
	C737.000000,678.261902 737.000000,715.523743 737.000000,753.000000 
	C698.312683,753.000000 659.625000,753.000000 620.468628,753.000000 
z"/>
<path fill="#000000" opacity="1.000000" stroke="none" 
	d="
M628.055969,308.265717 
	C628.620605,312.148926 629.126038,315.604401 629.569092,319.067871 
	C630.668274,327.660004 626.859985,333.328979 618.669739,335.345184 
	C608.973328,337.732178 601.482910,334.520050 598.534485,326.378510 
	C595.689819,318.523224 595.250183,310.104553 593.251404,302.034241 
	C583.345764,262.041016 565.506470,226.199539 537.812134,195.466522 
	C502.691162,156.492004 460.079956,130.690109 407.964874,121.613663 
	C405.019379,121.100677 402.014160,120.656143 399.036438,120.654289 
	C390.270325,120.648827 386.476624,114.971519 385.676514,105.780800 
	C385.489258,103.629814 385.653870,101.450424 385.591003,99.286011 
	C385.321747,90.009560 390.638702,85.087967 399.948273,86.244331 
	C414.991364,88.112892 429.769958,91.193573 444.284302,95.660278 
	C474.651642,105.005630 502.871674,118.506699 527.717957,138.509842 
	C548.435364,155.188965 566.636292,174.122177 581.780884,196.212631 
	C602.871826,226.976791 617.989807,260.121765 625.765747,296.600494 
	C626.561646,300.334381 627.237061,304.093994 628.055969,308.265717 
z"/>
<path fill="#000000" opacity="1.000000" stroke="none" 
	d="
M217.747925,140.708466 
	C241.280273,123.911926 265.517761,109.203804 292.703461,99.758095 
	C309.890686,93.786369 327.387573,89.394295 345.440765,87.206642 
	C357.724213,85.718155 363.152802,90.943825 362.437958,103.512177 
	C362.371765,104.675529 362.379608,105.842918 362.340210,107.007988 
	C362.071259,114.963081 358.137787,119.526199 350.414185,120.439163 
	C308.779755,125.360535 272.293518,142.279922 239.147766,167.427673 
	C224.042938,178.887726 210.412796,191.908249 198.950195,206.782974 
	C177.044861,235.208969 162.433945,267.316986 154.196503,302.314606 
	C152.476425,309.622620 151.758957,317.074493 150.198929,324.383148 
	C148.383316,332.889130 139.680725,338.037109 130.024948,336.563446 
	C121.837418,335.313873 116.792793,328.725006 117.907204,319.949066 
	C121.576752,291.051331 128.655945,263.027832 141.584961,236.825363 
	C154.907196,209.825943 171.236847,184.740112 192.659027,163.354156 
	C200.538055,155.488419 209.184357,148.391251 217.747925,140.708466 
z"/>
<path fill="#000000" opacity="1.000000" stroke="none" 
	d="
M129.485870,425.349731 
	C124.319832,410.657715 120.904701,395.908691 118.002884,381.038605 
	C115.759300,369.541504 119.860016,363.004456 130.202484,361.114471 
	C140.273117,359.274170 149.644165,365.701111 151.259232,375.530273 
	C156.388611,406.747162 168.266052,435.292969 185.519119,461.679474 
	C210.482788,499.858429 243.787537,528.567078 284.974426,547.935852 
	C305.343719,557.514832 326.426270,565.227600 349.067688,567.839600 
	C358.905701,568.974487 362.407623,573.322083 362.320099,583.115723 
	C362.287445,586.766846 362.609955,590.456116 361.552521,594.045593 
	C360.169464,598.740234 357.259888,601.172424 352.163116,601.414429 
	C341.785431,601.906982 332.127136,598.614502 322.241699,596.366699 
	C282.760956,587.389709 247.015259,570.333069 215.469757,545.174744 
	C183.247223,519.476318 158.182770,487.707947 140.090332,450.564728 
	C136.147949,442.471161 132.615936,434.207703 129.485870,425.349731 
z"/>
<path fill="#000000" opacity="1.000000" stroke="none" 
	d="
M540.782349,537.810303 
	C516.806213,558.379333 490.578217,574.457153 461.387909,585.801758 
	C441.742249,593.436951 421.554016,598.715332 400.785339,601.990295 
	C391.143707,603.510620 385.779694,598.989868 385.654541,589.179504 
	C385.424347,571.128601 387.829590,569.040649 405.673370,566.467773 
	C429.918915,562.971863 452.504669,554.483337 474.137482,542.834656 
	C511.115692,522.922852 540.474792,495.020813 562.977600,459.890747 
	C579.021545,434.843811 589.383911,407.283539 595.799316,378.289703 
	C598.643616,365.435333 603.628113,361.075287 616.353760,361.648315 
	C623.883850,361.987396 629.537170,367.654999 629.291321,375.269348 
	C628.802490,390.410675 624.112366,404.706421 619.735291,419.012207 
	C608.860962,454.553772 588.624207,484.661377 564.983032,512.784180 
	C557.566467,521.606750 549.195984,529.475769 540.782349,537.810303 
z"/>
<path fill="#000000" opacity="1.000000" stroke="none" 
	d="
M403.470642,300.274872 
	C398.105133,322.814819 389.038300,343.524475 379.492859,364.051117 
	C378.935425,365.249817 378.168121,366.357178 377.441223,367.469635 
	C375.687592,370.153320 373.910156,370.254272 372.148407,367.459198 
	C371.083557,365.769745 369.842651,364.168640 368.963593,362.388214 
	C358.260681,340.710754 348.750000,318.502319 343.347687,294.890625 
	C337.891571,271.043762 338.582886,247.044083 344.155670,223.178421 
	C348.268860,205.563644 354.513916,188.803238 363.407043,173.043396 
	C363.977722,172.032059 364.601257,171.033997 365.322083,170.126572 
	C370.585266,163.500961 378.567047,163.995361 382.823792,171.237747 
	C396.764465,194.956436 405.260529,220.361420 407.554718,247.916779 
	C409.020905,265.526917 407.738098,282.771088 403.470642,300.274872 
z"/>
<path fill="#000000" opacity="1.000000" stroke="none" 
	d="
M234.396713,278.536255 
	C229.054001,266.814545 224.627136,255.149231 221.375214,243.072311 
	C220.343750,239.241714 219.240250,235.034180 222.767883,231.851929 
	C226.195023,228.760315 230.264664,229.731033 234.119080,231.098572 
	C250.120712,236.775909 264.205292,245.909775 278.248047,255.236252 
	C301.035187,270.370300 316.771149,291.224060 328.356262,315.554993 
	C337.229980,334.191467 346.920929,352.439850 354.981750,371.460052 
	C355.915771,373.663940 357.407166,375.860840 356.541016,378.995239 
	C351.397614,379.009125 346.886292,376.755310 342.647369,374.478027 
	C325.194702,365.101990 307.804169,355.598663 290.593384,345.786804 
	C265.157043,331.285461 247.959534,309.531555 236.406631,282.977997 
	C235.808594,281.603455 235.182587,280.241119 234.396713,278.536255 
z"/>
<path fill="#000000" opacity="1.000000" stroke="none" 
	d="
M459.213928,344.286926 
	C441.266388,355.201385 423.800110,366.212891 405.661560,376.095062 
	C402.000458,378.089722 398.325806,379.827942 393.893402,379.081543 
	C392.931396,374.021240 394.781067,369.782166 396.600677,365.799408 
	C406.005646,345.213898 414.977753,324.429962 425.161469,304.198853 
	C438.982269,276.742310 461.106079,257.976990 487.629822,243.713806 
	C494.520996,240.008072 501.495605,236.457657 508.420532,232.814362 
	C512.146057,230.854309 516.040710,229.428436 520.277527,229.251419 
	C524.832947,229.061096 527.552673,231.795609 527.158508,236.368103 
	C526.946106,238.832458 526.373901,241.307739 525.642639,243.678970 
	C517.748169,269.277252 507.219299,293.646301 490.930298,315.126343 
	C482.225891,326.604706 471.778900,336.377136 459.213928,344.286926 
z"/>
<path fill="#000000" opacity="1.000000" stroke="none" 
	d="
M413.515900,390.473938 
	C430.320343,379.910614 447.195312,370.238342 465.394287,363.128571 
	C481.672363,356.769226 498.560120,357.147675 515.551514,359.023407 
	C522.996338,359.845276 530.335815,361.010864 537.433960,363.576813 
	C547.304199,367.144836 549.714600,375.566681 542.959595,383.607880 
	C540.919006,386.037018 538.523621,388.090576 535.914246,389.916870 
	C510.533020,407.681366 482.567352,415.733215 451.576233,412.339294 
	C437.226288,410.767822 423.594452,406.620544 410.593781,400.410614 
	C405.805756,398.123566 405.704315,396.333099 409.921265,392.927246 
	C410.952850,392.094055 412.104431,391.409485 413.515900,390.473938 
z"/>
<path fill="#000000" opacity="1.000000" stroke="none" 
	d="
M227.451813,398.668030 
	C221.166046,395.506378 215.185410,392.546631 210.063950,388.195984 
	C208.426178,386.804688 206.773361,385.343750 205.485092,383.643646 
	C200.228394,376.706635 201.815125,369.694550 209.716949,366.001343 
	C218.685165,361.809723 228.371811,360.015228 238.099091,358.714111 
	C259.068481,355.909302 279.048004,358.360077 297.934631,368.906830 
	C311.723175,376.606750 325.946747,383.541718 339.520874,391.650513 
	C341.290985,392.707916 343.507874,393.680969 343.206665,396.154327 
	C305.093903,417.030273 266.638977,417.611267 227.451813,398.668030 
z"/>
<path fill="#000000" opacity="1.000000" stroke="none" 
	d="
M89.851562,72.752815 
	C99.083900,67.066315 108.376778,62.949005 119.277496,64.518585 
	C138.150238,67.236038 152.842209,79.394791 156.623749,95.919746 
	C158.768478,105.291946 157.927017,114.271912 152.569717,122.737015 
	C146.156982,132.869781 139.543320,142.544861 126.967415,145.702286 
	C101.389191,152.124207 79.760117,140.119049 73.911026,113.529564 
	C70.279022,97.018768 75.195663,82.957428 89.851562,72.752815 
M108.774643,116.168251 
	C110.202690,116.825302 111.189499,117.990311 111.876198,119.309486 
	C113.853981,123.108887 116.070892,123.018250 118.594322,119.898033 
	C121.536324,116.260262 125.211136,113.983368 129.954468,113.485214 
	C130.889191,113.387039 131.800888,112.769485 132.656464,112.275810 
	C134.877701,110.994118 135.162735,108.898399 134.803986,106.637398 
	C134.405045,104.122978 132.346985,104.311508 130.549820,104.215027 
	C128.228333,104.090393 125.886841,103.854286 123.581070,104.027344 
	C119.529045,104.331459 118.346153,102.469543 118.671318,98.694267 
	C118.941147,95.561424 118.790199,92.386307 118.715515,89.232529 
	C118.681198,87.783531 118.821167,86.013168 116.904556,85.569839 
	C115.131821,85.159790 114.140839,86.551895 113.366478,87.799126 
	C111.114883,91.425682 110.011665,95.345337 110.719597,99.665741 
	C111.364151,103.599464 110.526360,105.870445 105.720566,104.685120 
	C103.351814,104.100883 100.726837,104.034904 98.295067,104.343407 
	C94.201225,104.862770 94.524170,108.310707 94.386887,111.276505 
	C94.243553,114.373199 96.314713,114.780296 98.688545,114.624084 
	C101.893272,114.413193 104.949112,115.197624 108.774643,116.168251 
z"/>
<path fill="#000000" opacity="1.000000" stroke="none" 
	d="
M619.876770,129.576370 
	C619.705872,127.920547 620.391174,126.502686 618.128906,124.531586 
	C614.752441,128.291473 611.424927,132.171646 607.905396,135.868973 
	C604.048889,139.920288 601.220642,140.244156 598.069153,137.314819 
	C594.964966,134.429428 594.517334,129.475632 597.736023,126.105408 
	C602.081726,121.555084 606.911865,117.467392 612.004211,112.745346 
	C605.618469,111.786903 599.793457,112.698181 593.954956,113.098068 
	C591.228516,113.284813 588.372253,112.961052 587.139893,110.054016 
	C586.049072,107.480621 586.541443,104.801140 588.109741,102.435974 
	C589.539917,100.279129 591.701233,99.757339 594.167053,99.626656 
	C599.087341,99.365868 603.996826,98.901794 609.377808,98.485558 
	C607.448120,93.747002 603.097900,92.284744 600.613770,89.075951 
	C599.207336,87.259270 597.199951,85.966194 596.451660,83.573334 
	C595.483032,80.475998 596.377747,78.004845 598.553284,75.866890 
	C600.774536,73.684013 603.201721,73.849724 605.884888,75.144325 
	C610.859253,77.544441 614.100342,82.314034 619.505310,85.081398 
	C619.802917,79.771698 619.805420,74.849228 620.424744,70.005630 
	C621.086121,64.833237 624.473816,63.044533 629.330505,64.577919 
	C632.414673,65.551666 633.367920,67.673561 633.356445,70.654022 
	C633.339172,75.146172 633.441589,79.639015 633.531433,84.130791 
	C633.536804,84.397820 633.881836,84.658058 634.258240,85.188286 
	C638.774231,83.588303 641.422852,79.645538 644.748413,76.566788 
	C647.361572,74.147522 649.975220,71.915062 654.015991,73.184265 
	C659.426086,74.883598 660.976990,79.408905 657.653259,84.054016 
	C654.502075,88.457977 650.118225,91.533981 646.065491,94.970276 
	C645.066895,95.816971 644.069275,96.664772 642.538696,97.964050 
	C648.947571,99.327599 654.833923,98.467819 660.659729,98.700317 
	C666.973755,98.952301 669.654968,101.587486 669.463867,107.023079 
	C669.313110,111.309372 667.234863,113.489944 662.855103,113.227356 
	C658.538757,112.968567 654.225952,112.639175 649.907227,112.434410 
	C647.926025,112.340477 645.886597,112.250244 643.797852,113.959076 
	C645.539795,116.569733 648.194519,118.246567 650.551392,120.162773 
	C653.275513,122.377647 656.009644,124.602600 658.048340,127.452042 
	C660.457153,130.818909 660.377747,134.184387 657.431335,137.408401 
	C654.582397,140.525757 651.773987,140.004074 648.551147,138.018448 
	C643.272339,134.766144 640.117737,129.045761 634.244873,125.853851 
	C633.047607,129.075302 633.447632,132.126450 633.787354,135.160110 
	C634.084167,137.810425 634.569031,140.498322 633.852844,143.100266 
	C632.937988,146.424011 630.992004,148.767258 627.111938,148.479935 
	C623.601929,148.220016 621.221619,146.740417 620.515442,142.932190 
	C619.716614,138.625381 619.844482,134.314819 619.876770,129.576370 
z"/>
<path fill="#000000" opacity="1.000000" stroke="none" 
	d="
M99.641602,604.588867 
	C83.422478,598.622864 70.686623,578.904297 71.973663,561.720947 
	C73.487999,541.502930 87.136444,525.843506 106.310669,521.367065 
	C125.450455,516.898560 146.964432,529.186462 154.460709,547.523071 
	C165.332657,574.116882 143.966232,606.637573 116.009178,607.967590 
	C110.447998,608.232117 105.156044,606.718201 99.641602,604.588867 
M122.817680,590.550781 
	C130.276306,587.635925 135.768433,582.875061 138.780396,575.153748 
	C143.530228,562.977295 139.067017,548.201538 128.307068,541.844055 
	C115.278961,534.146423 103.015800,536.293274 93.809448,547.883301 
	C86.647972,556.898987 86.494102,568.752502 93.399834,579.437012 
	C100.441582,590.331970 109.643143,593.965271 122.817680,590.550781 
z"/>
<path fill="#000000" opacity="1.000000" stroke="none" 
	d="
M643.159790,521.583984 
	C669.449280,528.474121 689.670044,560.997925 665.508118,592.022095 
	C650.229858,611.639404 622.019287,614.913269 602.201416,594.997070 
	C581.243286,573.935059 586.110107,546.619934 603.016174,531.630249 
	C614.241699,521.677124 627.512878,517.031921 643.159790,521.583984 
M614.282349,541.751343 
	C601.245789,551.365112 602.197021,569.526306 608.009583,579.143982 
	C615.911316,592.218628 631.273010,595.172119 644.423096,590.116943 
	C657.966614,584.910461 664.097717,568.333130 658.673218,553.557434 
	C652.126343,535.724426 631.800049,530.059570 614.282349,541.751343 
z"/>
<path fill="#000000" opacity="1.000000" stroke="none" 
	d="
M455.845825,438.073334 
	C466.362122,445.393066 474.537781,454.595306 482.396240,464.102448 
	C484.333527,466.446136 485.345886,469.326904 485.913666,472.298584 
	C487.105652,478.537445 483.403412,483.116638 477.034454,483.434753 
	C467.730286,483.899384 459.369415,480.370972 451.102905,476.926117 
	C436.026398,470.643402 420.623077,464.495331 409.885376,451.442627 
	C401.067810,440.724030 394.182159,428.742401 391.272400,414.884094 
	C391.145752,414.280975 391.256165,413.628082 391.256165,411.781006 
	C413.832062,418.705841 435.579529,425.993347 455.845825,438.073334 
z"/>
<path fill="#000000" opacity="1.000000" stroke="none" 
	d="
M276.377594,451.396271 
	C289.604309,435.989075 307.199127,428.619354 325.414551,422.343567 
	C334.058075,419.365540 342.754181,416.537292 351.457855,413.738831 
	C353.434570,413.103302 355.793335,411.612732 357.550873,413.467651 
	C359.277069,415.289398 357.810944,417.701691 357.057068,419.571045 
	C352.593781,430.638214 345.447327,440.035980 338.290131,449.453888 
	C329.245972,461.354767 316.532562,467.747772 303.279541,473.345245 
	C294.251740,477.158173 285.370972,481.489624 275.748749,483.632172 
	C265.411774,485.933868 260.406189,480.223297 263.586395,470.068756 
	C265.901886,462.675354 271.354156,457.387573 276.377594,451.396271 
z"/>
<path fill="#000000" opacity="1.000000" stroke="none" 
	d="
M353.928040,698.178406 
	C345.887299,691.024841 342.373138,682.653137 344.235748,672.109375 
	C346.362823,660.068481 353.594269,653.081299 365.006531,649.778687 
	C383.220490,644.507507 397.724548,656.909241 398.414459,674.772705 
	C398.855255,686.185242 394.919495,695.594666 384.781128,701.169739 
	C374.275848,706.946594 363.895966,705.017883 353.928040,698.178406 
z"/>
<path fill="#000000" opacity="1.000000" stroke="none" 
	d="
M360.815399,474.000305 
	C361.102692,465.522369 361.167145,457.528412 361.738617,449.570892 
	C362.248108,442.476440 366.596466,436.948822 370.409973,431.337585 
	C371.849792,429.219025 374.177765,429.228485 375.953125,431.287903 
	C381.559937,437.791931 386.411072,444.626251 386.364258,453.808350 
	C386.280365,470.283386 386.363098,486.759186 386.291351,503.234344 
	C386.281311,505.540588 386.069183,507.919525 385.472229,510.135986 
	C383.593658,517.110901 378.735077,520.315857 371.717529,519.494263 
	C365.153748,518.725830 360.884460,514.375916 360.756897,507.450317 
	C360.554565,496.470978 360.772827,485.483917 360.815399,474.000305 
z"/>
<path fill="#000000" opacity="1.000000" stroke="none" 
	d="
M99.828003,574.033142 
	C93.177933,566.932678 98.622276,553.526001 105.501900,549.423401 
	C110.671471,546.340637 121.622398,550.325378 123.120140,556.089478 
	C123.545677,557.727173 124.265152,559.940857 122.040855,560.954712 
	C119.947990,561.908691 118.224457,561.255371 117.196075,558.960938 
	C116.043152,556.388550 114.153770,554.128296 111.155670,554.687561 
	C107.519600,555.365784 105.834023,558.683044 104.792839,561.793274 
	C103.866318,564.561096 103.586403,567.667419 106.124977,570.166992 
	C109.921234,573.904907 113.827744,574.065063 116.926178,570.413086 
	C115.708923,569.342957 114.151695,569.669922 112.772522,569.440430 
	C111.171440,569.173889 109.730179,568.886780 109.892998,566.832153 
	C110.043083,564.938416 110.985359,563.741150 113.041603,563.715149 
	C113.706474,563.706726 114.371727,563.685669 115.035645,563.649231 
	C128.217972,562.926880 128.955750,563.641541 128.322601,576.802490 
	C128.240097,578.517639 128.778458,580.629333 126.151672,581.159058 
	C123.069901,581.780579 122.704956,579.479736 122.274628,577.332275 
	C113.303215,582.349487 106.297333,581.372192 99.828003,574.033142 
z"/>
<path fill="#000000" opacity="1.000000" stroke="none" 
	d="
M636.271179,572.639893 
	C638.690796,572.637756 640.690613,572.615601 642.690308,572.621033 
	C645.545532,572.628784 646.321289,574.334595 646.322144,576.876038 
	C646.322998,579.491577 644.986938,580.329529 642.577637,580.378723 
	C637.086731,580.490784 631.587585,580.069092 626.102173,580.811279 
	C623.184265,581.206055 621.636719,579.621277 621.807068,576.724304 
	C622.265198,568.934814 622.943481,561.197876 622.229736,553.336975 
	C621.772339,548.300049 626.060852,548.516602 629.695190,548.677795 
	C633.833923,548.861389 633.666443,551.856506 633.065674,554.422302 
	C631.978088,559.066895 632.559387,563.714111 632.351562,568.355042 
	C632.240417,570.837097 632.879822,572.682983 636.271179,572.639893 
z"/>
</svg>